<svg width="720" height="670" viewBox="0 0 720 670" fill="none" xmlns="http://www.w3.org/2000/svg">
<path d="M204.678 302.807L224.219 302.358V282.812V20.4375H346.406V124.531V141.124L362.714 144.188L678.303 203.463L682.212 282.55L682.247 283.264L682.333 283.975L698.16 414.23C596.076 457.565 545.289 499.403 521.488 543.439C502.666 578.261 502.111 613.279 502.654 643.344L433.161 624.618C408.626 567.817 385.858 524.576 364.402 492.786C342.025 459.631 319.971 437.26 297.24 425.84C273.221 413.772 249.808 414.652 228.538 425.079C214.039 432.186 201.072 443.442 189.364 456.605C126.174 406.361 90.2743 363.336 53.1802 318.88C49.7559 314.776 46.3215 310.66 42.8545 306.525L204.678 302.807Z" stroke="white" stroke-width="40"/>
</svg>
